<svg width="23" height="23" viewBox="0 0 23 23" fill="none" xmlns="http://www.w3.org/2000/svg">
<path d="M7.21433 21.4926C7.99933 21.4926 8.6357 20.8562 8.6357 20.0712C8.6357 19.2862 7.99933 18.6499 7.21433 18.6499C6.42933 18.6499 5.79297 19.2862 5.79297 20.0712C5.79297 20.8562 6.42933 21.4926 7.21433 21.4926Z" fill="#F9F9F9"/>
<path d="M17.1639 21.4926C17.9489 21.4926 18.5853 20.8562 18.5853 20.0712C18.5853 19.2862 17.9489 18.6499 17.1639 18.6499C16.3789 18.6499 15.7426 19.2862 15.7426 20.0712C15.7426 20.8562 16.3789 21.4926 17.1639 21.4926Z" fill="#F9F9F9"/>
<path d="M20.0066 5.14692H4.24371L3.66095 2.16205C3.62773 1.99911 3.53842 1.85298 3.40856 1.74909C3.27871 1.64521 3.11653 1.59015 2.95027 1.59351H0.107544V3.01487H2.36751L5.08232 16.66C5.11554 16.8229 5.20486 16.969 5.33471 17.0729C5.46457 17.1768 5.62674 17.2319 5.793 17.2285H18.5853V15.8071H6.37576L5.793 12.9644H18.5853C18.7496 12.9684 18.9102 12.9154 19.0397 12.8143C19.1693 12.7133 19.2599 12.5704 19.296 12.4101L20.7173 6.01395C20.7411 5.9085 20.7406 5.79901 20.7157 5.69381C20.6908 5.58861 20.6423 5.49047 20.5737 5.40686C20.5052 5.32326 20.4185 5.25638 20.3202 5.21134C20.222 5.16629 20.1147 5.14426 20.0066 5.14692ZM18.0167 11.5431H5.52294L4.52799 6.56828H19.1183L18.0167 11.5431Z" fill="#F9F9F9"/>
</svg>
