<svg width="20" height="23" viewBox="0 0 20 23" fill="none" xmlns="http://www.w3.org/2000/svg">
<ellipse cx="10" cy="11.4034" rx="10" ry="10.7296" fill="#12141D"/>
<path d="M15.0429 7.3668C14.9682 7.28593 14.8792 7.22174 14.7812 7.17793C14.6832 7.13413 14.5781 7.11157 14.472 7.11157C14.3658 7.11157 14.2607 7.13413 14.1627 7.17793C14.0647 7.22174 13.9758 7.28593 13.901 7.3668L7.90986 13.8037L5.39278 11.0943C5.31516 11.0139 5.22353 10.9506 5.12312 10.9082C5.02271 10.8657 4.9155 10.8449 4.80759 10.8469C4.69969 10.8489 4.59321 10.8737 4.49423 10.9198C4.39525 10.966 4.30572 11.0326 4.23074 11.1159C4.15576 11.1992 4.0968 11.2975 4.05723 11.4052C4.01766 11.513 3.99826 11.628 4.00012 11.7438C4.00199 11.8596 4.02509 11.9738 4.06811 12.08C4.11113 12.1862 4.17322 12.2823 4.25084 12.3627L7.33889 15.6761C7.41365 15.757 7.50259 15.8212 7.60059 15.865C7.69859 15.9088 7.8037 15.9313 7.90986 15.9313C8.01602 15.9313 8.12113 15.9088 8.21913 15.865C8.31712 15.8212 8.40607 15.757 8.48083 15.6761L15.0429 8.6352C15.1246 8.5544 15.1897 8.45633 15.2343 8.34718C15.2788 8.23803 15.3018 8.12016 15.3018 8.001C15.3018 7.88184 15.2788 7.76397 15.2343 7.65482C15.1897 7.54567 15.1246 7.4476 15.0429 7.3668V7.3668Z" fill="#D1EDF5"/>
</svg>
