<svg width="550" height="550" viewBox="0 0 550 550" fill="none" xmlns="http://www.w3.org/2000/svg">
<path d="M512.594 418.231H508.41V401.388H436.551V416.644H432.368V396.93H512.594V418.231Z" fill="#1B1147"/>
<path d="M256.272 337.256C258.179 335.856 325.161 309.34 325.161 309.34L323.395 328.063L320.886 354.972L319.681 367.677L319.48 369.888L318.71 378.1L318.61 379.072L318.141 384.056L312.569 386.062L307.826 387.738C307.826 387.738 304.663 384.831 299.903 380.418L299.283 379.838C295.795 376.602 291.528 372.625 287.052 368.417C283.856 365.421 280.551 362.283 277.347 359.234C265.726 348.133 255.418 337.916 256.272 337.256Z" fill="#9C6FDB"/>
<path d="M231.122 296.849H231.137L231.13 296.857L231.122 296.849Z" fill="#1B1147"/>
<path d="M300.162 74.5822L233.13 69.3039L235.682 32.5434L215.477 7.57861L304.303 14.5598C304.303 14.5598 300.773 74.0027 300.162 74.5822Z" fill="#E23333"/>
<path d="M59.8115 281.914L61.5768 353.519L26.9984 354.49L5.71425 378.394L3.34656 283.528C3.34656 283.528 59.2175 281.326 59.8115 281.914Z" fill="#E23333"/>
<path d="M141.443 429.75L141.535 429.59C133.905 424.739 135.519 417.508 135.586 417.196L134.75 416.982C134.38 419.198 134.592 421.479 135.361 423.574C136.13 425.67 137.427 427.498 139.108 428.859C132.231 426.665 127.245 428.413 126.969 428.511L127.245 429.358C127.329 429.358 135.946 426.291 146.053 433.317L146.504 432.576C144.91 431.456 143.214 430.509 141.443 429.75Z" fill="#1B1147"/>
<path d="M328.181 406.078C328.002 403.052 326.749 400.212 324.676 398.135C322.603 396.058 319.866 394.901 317.02 394.898H316.318C313.401 395.066 310.662 396.444 308.686 398.737C306.71 401.03 305.654 404.055 305.743 407.166C305.833 410.278 307.061 413.229 309.165 415.388C311.269 417.547 314.083 418.743 317.004 418.721H317.706C320.668 418.524 323.435 417.081 325.4 414.711C327.364 412.34 328.364 409.235 328.181 406.078ZM320.108 408.7L320.71 416.082L316.15 410.634L306.83 408.753C306.761 408.34 306.714 407.923 306.688 407.505C306.52 404.587 307.445 401.717 309.26 399.525C311.074 397.332 313.63 395.995 316.368 395.807H317.029C318.619 395.808 320.187 396.202 321.611 396.957C323.035 397.712 324.276 398.807 325.236 400.158L320.108 408.7Z" fill="#1B1147"/>
<path d="M317.012 58.2035L316.368 91.362L316.309 94.1171L315.196 151.491L315.129 154.871L314.77 173.166L314.736 175.083L313.866 219.681L313.824 222.008L312.804 274.461L312.762 276.262L312.494 290.224L312.444 292.542L312.31 299.621L240.359 329.998L230.528 332.798L228.386 333.404L197.757 342.115L195.916 342.632L182.296 346.511L179.995 347.161L64.0031 380.151L62.7398 375.933L62.2294 374.239L56.0634 353.67L34.6955 282.378L30.0605 266.909L34.8043 266.989L65.3752 267.515L67.5756 267.551L154.62 269.04H154.628L156.661 269.075L180.38 269.485L182.38 269.512L212.348 270.029L215.803 209.463L215.904 207.689L219.97 136.584L220.07 134.783L221.936 102.133L222.078 99.6182L224.396 59.0148L233.85 58.9346L301.534 58.3372L317.012 58.2035Z" fill="#1B1147"/>
<path d="M420.321 498.804C418.488 497.61 417.166 496.736 416.689 496.388L416.146 495.996C412.255 493.161 408.892 490.7 406.215 486.474C403.576 482.219 401.79 477.429 400.969 472.404C399.672 464.959 400.35 457.381 401.019 450.052L401.128 448.795C401.613 443.374 402.199 436.223 402.433 429.037C403.002 411.303 401.404 396.485 397.555 383.735C392.536 367.053 382.973 353.206 369.946 343.693C362.81 338.468 347.968 332.619 337.434 329.187L337.217 329.936C345.138 332.493 352.905 335.563 360.475 339.128L340.681 385.072C337.082 381.136 333.099 377.621 328.8 374.587C328.625 374.48 328.323 374.319 328.148 374.64C327.972 374.961 328.256 375.166 328.415 375.273C334.439 379.348 386.437 417.58 357.698 505.313H357.782C352.009 510.921 342.253 521.148 343.676 524.928C344.077 526.007 345.274 526.497 347.231 526.381C358.894 525.695 370.063 512.794 371.737 510.779C374.882 512.972 400.919 530.929 411.293 530.929C412.048 530.953 412.801 530.823 413.51 530.545C413.901 530.437 414.251 530.204 414.513 529.877C414.775 529.55 414.936 529.145 414.974 528.717C415.058 526.408 410.791 522.744 405.412 519.106C413.92 523.341 422.797 527.13 427.081 527.13C427.821 527.194 428.559 526.993 429.181 526.56C429.335 526.426 429.455 526.253 429.529 526.056C429.604 525.86 429.631 525.647 429.607 525.436C429.44 523.823 426.319 521.085 422.136 518.099C430.703 522.61 438.702 526.203 440.35 524.893C440.493 524.784 440.607 524.637 440.679 524.466C440.751 524.295 440.779 524.107 440.76 523.921C440.634 522.137 435.991 518.42 430.486 514.675C437.748 518.428 444.709 521.38 446.148 519.828C446.248 519.723 446.324 519.593 446.369 519.451C446.414 519.308 446.427 519.157 446.407 519.008C446.081 516.066 433.673 507.56 420.321 498.804ZM445.629 519.311C444.056 520.996 431.858 514.853 421.015 508.612C416.832 506.08 413.485 504.154 412.523 503.574L412.163 504.261C413.142 504.867 416.505 506.936 420.756 509.361C430.235 515.174 439.873 521.772 439.998 523.983C440.007 524.04 439.999 524.098 439.977 524.15C439.955 524.202 439.918 524.247 439.873 524.277C438.2 525.615 426.604 519.864 414.648 513.168C407.721 508.826 400.685 504.939 399.204 504.136L398.852 504.823C400.383 505.714 406.633 509.539 413.845 513.596C421.458 518.348 428.62 523.404 428.838 525.534C428.85 525.614 428.842 525.697 428.814 525.772C428.786 525.847 428.739 525.913 428.679 525.962C425.968 528.352 410.047 520.782 397.447 514.077C391.858 510.77 386.796 508.113 385.575 507.48L385.232 508.175C386.545 508.942 391.189 511.626 397.02 514.755C405.453 519.766 414.313 525.793 414.205 528.664C414.205 528.842 414.205 529.386 413.184 529.814C405.077 533.229 372.188 510.199 371.812 509.923L371.536 509.735L371.327 510.003C371.21 510.145 359.413 524.866 347.131 525.597C345.525 525.686 344.571 525.365 344.295 524.634C342.873 520.827 356.635 507.194 362.065 502.264L361.588 501.666C361.178 502.041 360.107 503.022 358.702 504.341C379.2 440.476 357.029 402.86 341.191 385.616L361.103 339.413C364.009 340.799 366.807 342.43 369.469 344.29C382.337 353.706 391.774 367.41 396.769 383.931C400.601 396.592 402.182 411.321 401.613 428.965C401.379 436.098 400.777 443.231 400.308 448.679L400.199 449.936C399.53 457.318 398.844 464.95 400.199 472.502C401.035 477.633 402.858 482.523 405.554 486.866C408.306 491.217 411.728 493.713 415.686 496.602L416.221 496.994C416.715 497.351 418.045 498.225 419.885 499.428C426.83 503.985 445.294 516.084 445.621 519.044C445.637 519.058 445.651 519.076 445.66 519.096C445.67 519.117 445.675 519.139 445.676 519.162C445.677 519.185 445.673 519.207 445.665 519.229C445.657 519.25 445.644 519.269 445.629 519.284V519.311Z" fill="#1B1147"/>
<path d="M331.628 415.485C331.628 415.485 337.351 429.563 327.445 429.884C317.539 430.205 319.263 425.943 319.263 425.943L329.503 414.352L331.628 415.485Z" fill="#9C6FDB"/>
<path d="M329.56 413.463L304.08 440.768L304.674 441.397L330.153 414.091L329.56 413.463Z" fill="#1B1147"/>
<path d="M334.858 430.784C335.846 430.784 336.648 429.93 336.648 428.876C336.648 427.822 335.846 426.968 334.858 426.968C333.869 426.968 333.067 427.822 333.067 428.876C333.067 429.93 333.869 430.784 334.858 430.784Z" fill="#9C6FDB"/>
<path d="M156.661 269.075C144.112 287.567 130.382 297.286 115.666 298.035C115.063 298.035 114.453 298.079 113.85 298.079C92.2314 298.079 73.9842 278.553 65.3919 267.515H67.5923C76.5778 278.785 94.6242 297.295 115.59 296.216C129.529 295.502 142.614 286.408 154.636 269.004L156.661 269.075Z" fill="white"/>
<path d="M262.137 131.858C259.777 132.619 257.393 133.288 254.983 133.865C269.919 147.171 286.27 158.561 303.701 167.799C307.841 162.626 311.669 157.179 315.163 151.491L315.096 154.871C312.085 159.639 308.84 164.234 305.374 168.637C308.442 170.218 311.579 171.728 314.787 173.166V175.083C311.206 173.484 307.706 171.802 304.287 170.037C299.673 175.744 294.609 181.021 289.152 185.809C275.456 197.739 260.129 205.371 243.58 208.491C237.953 209.54 232.25 210.065 226.538 210.06C222.969 210.062 219.403 209.863 215.854 209.463L215.954 207.68C225.088 208.72 234.314 208.393 243.362 206.708C260.505 203.463 282.316 193.914 302.664 169.181C284.861 159.707 268.178 148.01 252.967 134.337C245.096 136.072 237.077 136.935 229.039 136.914C226.061 136.914 223.054 136.801 220.02 136.575L220.121 134.792C230.531 135.592 240.996 134.926 251.244 132.812C248.778 130.566 246.433 128.363 244.207 126.206C236.397 118.615 228.979 110.579 221.986 102.133L222.128 99.6183C229.422 108.51 237.182 116.955 245.37 124.913C247.88 127.329 250.507 129.817 253.318 132.349C272.68 127.783 290.571 117.863 305.19 103.586C309.153 99.7509 312.9 95.6692 316.41 91.3621L316.351 94.1171C313.188 97.9022 309.837 101.504 306.311 104.905C293.662 117.296 278.567 126.506 262.137 131.858Z" fill="white"/>
<path d="M182.388 269.512C173.652 283.207 164.05 296.252 153.649 308.555C133.244 332.629 101.585 362.72 62.7481 375.933L62.2378 374.239C100.723 361.151 132.114 331.273 152.386 307.37C162.502 295.414 171.857 282.752 180.388 269.468L182.388 269.512Z" fill="white"/>
<path d="M293.661 260.436C294.145 264.703 295.428 268.824 297.435 272.552C303.291 272.989 308.528 273.712 312.845 274.46L312.804 276.244C308.779 275.53 303.902 274.844 298.464 274.389C302.128 280.63 307.349 285.98 312.536 290.206L312.486 292.524C306.537 287.781 300.396 281.62 296.372 274.238C277.28 272.927 251.955 274.817 231.34 289.011C219.024 297.49 209.671 309.447 203.346 324.675C211.578 322.839 220.698 325.567 230.57 332.744L228.428 333.351C218.949 326.762 210.273 324.533 202.492 326.708C200.565 331.696 198.982 336.827 197.757 342.061L195.916 342.579C197.084 337.42 198.591 332.355 200.426 327.421C192.168 330.649 186.27 338.691 182.296 346.466L179.995 347.117C184.178 338.406 190.813 328.937 200.56 325.469L201.263 325.237C207.705 309.037 217.452 296.394 230.403 287.478C250.984 273.301 276.15 271.188 295.385 272.321C293.572 268.653 292.409 264.66 291.955 260.543C290.549 246.91 297.92 233.153 313.866 219.592V221.919C299.099 234.856 292.306 247.757 293.661 260.436Z" fill="white"/>
<path d="M538.53 416.002H412.088V471.299H538.53V416.002Z" fill="#FE1D00"/>
<path d="M447.394 449.535C447.394 449.624 447.394 449.722 447.394 449.811C447.375 451.016 447.215 452.214 446.917 453.377C446.123 456.557 444.365 459.368 441.917 461.374C439.469 463.38 436.468 464.468 433.38 464.469C433.021 464.469 432.661 464.469 432.31 464.424C431.958 464.38 431.523 464.344 431.138 464.282C428.676 463.859 426.365 462.742 424.445 461.045C424.136 460.769 423.834 460.483 423.55 460.154C421.739 458.268 420.446 455.891 419.81 453.279C419.81 453.146 419.743 453.003 419.718 452.86C419.258 450.742 419.239 448.541 419.663 446.414C420.086 444.287 420.942 442.284 422.169 440.547C422.404 440.217 422.646 439.897 422.906 439.584C424.221 438.011 425.835 436.752 427.641 435.893C429.446 435.034 431.403 434.593 433.38 434.6C434.59 434.598 435.794 434.765 436.961 435.1C438.169 435.428 439.327 435.938 440.4 436.615C442.289 437.778 443.897 439.397 445.093 441.341C445.336 441.742 445.57 442.161 445.78 442.589C446.842 444.729 447.396 447.114 447.394 449.535Z" fill="#2EB9FF"/>
<path d="M527.31 449.285C527.313 452.797 526.172 456.2 524.081 458.914C523.822 459.271 523.542 459.611 523.244 459.931C521.432 461.909 519.146 463.321 516.635 464.014C516.227 464.13 515.814 464.222 515.397 464.291C514.625 464.427 513.844 464.495 513.062 464.496C509.364 464.504 505.809 462.971 503.156 460.225C502.814 459.881 502.493 459.515 502.194 459.128C500.61 457.151 499.532 454.771 499.065 452.218C498.982 451.785 498.921 451.348 498.881 450.908C498.824 450.369 498.796 449.827 498.798 449.285C498.785 446.77 499.36 444.291 500.471 442.072C500.66 441.686 500.87 441.311 501.098 440.949C502.163 439.22 503.546 437.739 505.164 436.598C505.507 436.357 505.859 436.134 506.219 435.92C508.615 434.533 511.335 433.906 514.055 434.113C516.775 434.32 519.383 435.352 521.571 437.088C521.897 437.356 522.215 437.632 522.516 437.917C524.684 439.964 526.213 442.667 526.9 445.665C527.026 446.197 527.121 446.735 527.185 447.279C527.269 447.944 527.311 448.614 527.31 449.285Z" fill="#2EB9FF"/>
<path d="M444.14 442.714C444.695 442.649 445.254 442.616 445.813 442.616C445.604 442.188 445.37 441.769 445.127 441.368C444.583 441.368 444.039 441.448 443.504 441.528C442.559 439.832 441.528 438.192 440.417 436.615C439.344 435.938 438.186 435.428 436.978 435.1C438.724 437.232 440.299 439.517 441.688 441.929C437.221 443.186 433.422 446.387 430.427 449.82C428.585 445.913 426.025 442.441 422.897 439.611C422.638 439.923 422.395 440.244 422.161 440.574C425.274 443.399 427.791 446.893 429.549 450.827C428.854 451.674 428.21 452.539 427.608 453.386C425.017 453.103 422.444 452.656 419.902 452.049L419.71 452.887L419.626 453.261L419.802 453.306C422.11 453.867 424.445 454.293 426.796 454.581C425.609 456.377 424.522 458.247 423.542 460.18C423.826 460.483 424.127 460.769 424.437 461.072C425.523 458.881 426.753 456.774 428.118 454.768C429.013 454.857 429.942 454.938 430.904 455C431.603 458.05 431.677 461.225 431.122 464.308C431.126 464.332 431.126 464.356 431.122 464.38L432.276 464.62V464.451C432.823 461.339 432.763 458.14 432.1 455.054C432.711 455.054 433.339 455.054 433.966 455.054C438.308 455.054 442.901 454.456 446.574 452.566L446.876 453.404C447.173 452.241 447.333 451.043 447.352 449.838C446.411 447.399 445.338 445.021 444.14 442.714ZM428.988 453.529C429.331 453.056 429.691 452.584 430.067 452.102C430.26 452.611 430.427 453.128 430.578 453.654L428.988 453.529ZM431.816 453.716C431.568 452.807 431.272 451.914 430.929 451.041C433.924 447.475 437.773 444.212 442.316 443.062C443.789 445.738 445.077 448.524 446.173 451.398C442.09 453.52 436.668 453.939 431.816 453.716Z" fill="#FE1D00"/>
<path d="M527.185 447.279C527.121 446.736 527.026 446.197 526.9 445.665C525.068 448.34 521.412 449.874 517.22 450.649C516.702 450.212 516.175 449.758 515.631 449.374C518.19 445.743 520.491 441.913 522.516 437.917C522.215 437.632 521.897 437.356 521.571 437.088C519.52 441.106 517.205 444.964 514.644 448.634C514.301 448.376 513.966 448.126 513.615 447.903C511.659 443.587 509.178 439.564 506.235 435.938C505.876 436.152 505.524 436.375 505.181 436.616C507.636 439.672 509.779 442.999 511.573 446.539C508.212 444.426 504.718 442.564 501.115 440.967C500.886 441.335 500.677 441.71 500.488 442.09C504.702 443.957 508.763 446.197 512.627 448.786C512.87 449.339 513.096 449.892 513.313 450.462C513.112 450.73 512.912 450.988 512.703 451.247C508.089 451.535 503.462 451.428 498.865 450.926C498.904 451.366 498.966 451.803 499.049 452.236C501.358 452.477 504.495 452.718 507.892 452.718C509.097 452.718 510.326 452.718 511.565 452.62C508.603 456.044 505.357 458.683 502.186 459.146C502.485 459.533 502.806 459.899 503.148 460.243C506.687 459.351 510.184 456.275 513.288 452.495L514.008 452.424C515.313 456.215 515.78 460.276 515.371 464.291C515.788 464.222 516.202 464.13 516.61 464.014C516.96 460.039 516.497 456.03 515.254 452.263L516.852 452.013C519.483 454.136 521.654 456.836 523.219 459.931C523.517 459.611 523.797 459.271 524.056 458.914C522.607 456.157 520.686 453.713 518.392 451.71C521.989 450.908 525.169 449.535 527.16 447.252L527.185 447.279ZM514.844 451.015L514.71 450.64C514.769 450.56 514.828 450.489 514.878 450.409L515.539 450.926L514.844 451.015Z" fill="#E23333"/>
<path d="M494.096 436.91H453.242V457.078H494.096V436.91Z" fill="#1B1147"/>
<path d="M529.887 419.345H418.656V432.059H529.887V419.345Z" fill="#1B1147"/>
<path d="M486.934 459.226H479.028V460.974H486.934V459.226Z" fill="#1B1147"/>
<path d="M496.137 459.226H488.231V460.974H496.137V459.226Z" fill="#1B1147"/>
<path d="M459.325 459.226H451.418V460.974H459.325V459.226Z" fill="#1B1147"/>
<path d="M468.528 459.226H460.622V460.974H468.528V459.226Z" fill="#1B1147"/>
<path d="M477.731 459.226H469.825V460.974H477.731V459.226Z" fill="#1B1147"/>
<path d="M464.177 449.909C465.277 449.909 466.168 448.959 466.168 447.787C466.168 446.615 465.277 445.665 464.177 445.665C463.078 445.665 462.186 446.615 462.186 447.787C462.186 448.959 463.078 449.909 464.177 449.909Z" fill="#FE1D00"/>
<path d="M483.42 449.909C484.52 449.909 485.411 448.959 485.411 447.787C485.411 446.615 484.52 445.665 483.42 445.665C482.32 445.665 481.429 446.615 481.429 447.787C481.429 448.959 482.32 449.909 483.42 449.909Z" fill="#FE1D00"/>
<path d="M295.201 431.48C286.508 445.745 275.958 455.794 264.379 462.686C231.934 443.204 235.933 418.106 236.343 415.886C245.017 410.311 252.557 402.944 258.522 394.22L257.853 393.685C236.427 424.16 208.909 426.888 189.608 423.812C176.54 421.585 163.969 416.816 152.52 409.743C151.407 404.652 143.141 367.838 136.724 369.095C136.172 369.21 135.649 369.451 135.192 369.8C134.734 370.149 134.352 370.599 134.072 371.119C130.315 377.431 134.314 396.69 135.536 402.066C130.064 397.046 104.58 374.382 95.009 378.109C94.5152 378.234 94.0685 378.515 93.7279 378.917C93.3874 379.318 93.169 379.819 93.1015 380.356C92.8003 384.181 101.585 391.474 110.311 397.715C101.234 392.776 91.0685 388.184 86.6008 389.432C86.164 389.532 85.7515 389.727 85.3898 390.007C85.0282 390.286 84.7254 390.643 84.5008 391.055C84.3263 391.42 84.2237 391.82 84.1993 392.229C84.1748 392.639 84.229 393.049 84.3586 393.435C85.6805 398.072 95.3604 405.267 104.287 411.08C93.1601 405.73 79.7738 400.978 76.4941 406.729C76.2867 407.102 76.1603 407.52 76.1241 407.952C76.0879 408.384 76.1429 408.819 76.285 409.226C77.6738 413.942 88.3075 420.816 97.77 426.059C72.8715 415.083 72.0599 416.67 69.5835 421.512C69.4885 421.701 69.434 421.91 69.4238 422.124C69.4137 422.339 69.4482 422.553 69.5249 422.751C71.4743 428.68 107.174 444.675 108.621 445.326C128.734 456.615 150.076 465.219 172.164 470.942C185.639 474.448 199.448 476.291 213.319 476.434C243.714 476.434 275.113 466.101 295.929 431.97L295.201 431.48ZM172.348 470.077C150.322 464.365 129.04 455.786 108.981 444.533C98.7237 439.959 71.809 427.075 70.2779 422.457C70.2409 422.376 70.2217 422.288 70.2217 422.198C70.2217 422.109 70.2409 422.02 70.2779 421.94C72.838 416.956 73.4404 415.77 112.947 433.887L113.281 433.076C112.947 432.915 79.4726 417.107 77.0714 408.958C76.9658 408.67 76.9223 408.36 76.944 408.051C76.9657 407.743 77.0522 407.443 77.1969 407.175C81.2546 400.042 103.76 411.419 114.344 417.286C117.414 419.069 119.539 420.281 119.866 420.46L120.267 419.675C119.916 419.461 117.757 418.177 114.62 416.421C105.157 410.804 86.9103 399.32 85.1534 393.159C85.055 392.886 85.0108 392.595 85.0238 392.303C85.0368 392.012 85.1065 391.726 85.2287 391.465C85.3983 391.159 85.627 390.895 85.8996 390.691C86.1722 390.486 86.4826 390.346 86.8099 390.279C92.9593 388.549 111.073 398.883 120.803 404.83C124.275 407.077 126.768 408.592 127.128 408.815L127.554 408.049C127.195 407.808 124.542 406.06 120.711 403.724C109.558 396.458 93.5784 385.001 93.9381 380.409C93.9883 379.749 94.4318 379.268 95.3019 378.929C105.342 375.015 135.687 403.359 135.988 403.644L137.017 404.616L136.674 403.198C136.615 402.958 130.683 378.465 134.783 371.573C135.001 371.158 135.3 370.797 135.662 370.517C136.023 370.237 136.437 370.044 136.875 369.951H137.1C141.459 369.951 148.211 393.81 151.742 410.135L151.784 410.313L151.926 410.411C163.503 417.595 176.228 422.431 189.458 424.677C202.509 426.763 219.259 426.219 235.414 416.439C234.711 421.405 233.264 444.747 263.534 463.167C234.82 479.769 200.1 477.067 172.348 470.077Z" fill="#1B1147"/>
</svg>
