<svg width="12" height="18" viewBox="0 0 12 18" fill="none" xmlns="http://www.w3.org/2000/svg">
<path d="M6 17.5713C6 17.5713 0 9.74561 0 6.42847C-1.17411e-08 5.64054 0.155195 4.86032 0.456723 4.13237C0.758251 3.40441 1.20021 2.74298 1.75736 2.18583C2.31451 1.62867 2.97595 1.18672 3.7039 0.88519C4.43185 0.583661 5.21207 0.428467 6 0.428467C6.78793 0.428467 7.56815 0.583661 8.2961 0.88519C9.02405 1.18672 9.68549 1.62867 10.2426 2.18583C10.7998 2.74298 11.2417 3.40441 11.5433 4.13237C11.8448 4.86032 12 5.64054 12 6.42847C12 9.74561 6 17.5713 6 17.5713ZM6 8.14275C6.45466 8.14275 6.89069 7.96214 7.21218 7.64065C7.53367 7.31916 7.71429 6.88312 7.71429 6.42847C7.71429 5.97381 7.53367 5.53777 7.21218 5.21628C6.89069 4.89479 6.45466 4.71418 6 4.71418C5.54534 4.71418 5.10931 4.89479 4.78782 5.21628C4.46633 5.53777 4.28571 5.97381 4.28571 6.42847C4.28571 6.88312 4.46633 7.31916 4.78782 7.64065C5.10931 7.96214 5.54534 8.14275 6 8.14275Z" fill="#B9B9B9"/>
</svg>
