<svg width="36" height="40" viewBox="0 0 36 40" fill="none" xmlns="http://www.w3.org/2000/svg">
<path d="M32.9948 11.1994H2.02621C0.907167 11.1994 0 12.2148 0 13.4672V17.3309C0 18.5834 0.907167 19.5987 2.02621 19.5987H32.9948C34.1138 19.5987 35.021 18.5834 35.021 17.3309V13.4672C35.021 12.2148 34.1138 11.1994 32.9948 11.1994Z" fill="#E23333"/>
<path d="M3.97116 22.3984C3.58139 22.3984 3.20758 22.5717 2.93197 22.8802C2.65636 23.1886 2.50153 23.607 2.50153 24.0433V36.3971C2.50153 37.1397 2.76508 37.8518 3.2342 38.3769C3.70332 38.9019 4.33959 39.1969 5.00303 39.1969H15.3155C15.5659 39.1969 15.8061 39.0855 15.9832 38.8873C16.1603 38.6891 16.2598 38.4203 16.2598 38.14V23.4413C16.2565 23.1634 16.1555 22.8982 15.9788 22.703C15.8021 22.5078 15.5638 22.3984 15.3155 22.3984H3.97116ZM12.914 31.0286L9.91222 34.3883C9.84079 34.4683 9.75597 34.5318 9.66261 34.5751C9.56926 34.6184 9.4692 34.6407 9.36814 34.6407C9.26709 34.6407 9.16703 34.6184 9.07367 34.5751C8.98032 34.5318 8.8955 34.4683 8.82407 34.3883L5.90357 31.1266C5.49879 30.6925 5.25674 30.1023 5.22654 29.4757C5.19634 28.8492 5.38026 28.2332 5.74097 27.7529C5.9341 27.5118 6.16915 27.3174 6.43174 27.1815C6.69433 27.0456 6.97893 26.9712 7.26813 26.9626C7.55733 26.9541 7.84504 27.0117 8.11365 27.132C8.38227 27.2522 8.62613 27.4326 8.83032 27.6619L9.36814 28.2639L9.81841 27.7599C10.2063 27.3069 10.7336 27.036 11.2934 27.0022C11.8532 26.9684 12.4036 27.1742 12.8327 27.5779C13.0471 27.794 13.22 28.0567 13.3409 28.3499C13.4617 28.6432 13.5279 28.9609 13.5355 29.2837C13.5431 29.6066 13.4919 29.9277 13.3851 30.2277C13.2782 30.5277 13.118 30.8002 12.914 31.0286Z" fill="#E23333"/>
<path d="M19.7055 22.3984C19.4551 22.3984 19.2149 22.5098 19.0378 22.708C18.8607 22.9062 18.7612 23.175 18.7612 23.4553V38.154C18.7645 38.4319 18.8655 38.6971 19.0422 38.8923C19.2189 39.0875 19.4572 39.1969 19.7055 39.1969H30.018C30.6814 39.1969 31.3177 38.9019 31.7868 38.3769C32.2559 37.8518 32.5195 37.1397 32.5195 36.3971V24.0433C32.5195 23.607 32.3646 23.1886 32.089 22.8802C31.8134 22.5717 31.4396 22.3984 31.0499 22.3984H19.7055Z" fill="#E23333"/>
<path d="M24.858 0.000458955H23.9011C22.6647 0.000388641 21.4548 0.40173 20.418 1.15584C19.3813 1.90994 18.5622 2.98443 18.0601 4.24908C18.0066 4.36019 17.9271 4.45301 17.8302 4.51771C17.7333 4.5824 17.6226 4.61656 17.5098 4.61656C17.397 4.61656 17.2863 4.5824 17.1894 4.51771C17.0925 4.45301 17.0131 4.36019 16.9595 4.24908C16.4574 2.98443 15.6383 1.90994 14.6016 1.15584C13.5648 0.40173 12.3549 0.000388641 11.1185 0.000458955H10.1616C9.1665 -0.0157709 8.20424 0.398993 7.47588 1.15811C6.74752 1.91722 6.30941 2.96197 6.25305 4.07409C6.23798 4.6361 6.3239 5.19578 6.50571 5.71994C6.68752 6.24409 6.96152 6.72204 7.31146 7.12546C7.6614 7.52887 8.08016 7.84953 8.5429 8.06841C9.00564 8.2873 9.50294 8.39996 10.0053 8.3997H25.0143C25.5167 8.39996 26.014 8.2873 26.4767 8.06841C26.9395 7.84953 27.3582 7.52887 27.7082 7.12546C28.0581 6.72204 28.3321 6.24409 28.5139 5.71994C28.6957 5.19578 28.7816 4.6361 28.7666 4.07409C28.7102 2.96197 28.2721 1.91722 27.5437 1.15811C26.8154 0.398993 25.8531 -0.0157709 24.858 0.000458955Z" fill="#E23333"/>
</svg>
