<svg width="15" height="15" viewBox="0 0 15 15" fill="none" xmlns="http://www.w3.org/2000/svg">
<path d="M14.9997 13.7624V14.2499C14.9997 14.4488 14.9207 14.6395 14.7801 14.7802C14.6394 14.9208 14.4486 14.9999 14.2497 14.9999H12.7498C9.36827 14.9999 6.12529 13.6566 3.73423 11.2655C1.34316 8.87443 -0.00012207 5.63145 -0.00012207 2.24998L-0.00012207 0.749993C-0.00012207 0.551082 0.0788948 0.360319 0.219546 0.219668C0.360197 0.0790169 0.55096 0 0.74987 0L3.74984 0C3.94875 0 4.13951 0.0790169 4.28017 0.219668C4.42082 0.360319 4.49983 0.551082 4.49983 0.749993V3.74996C4.49983 4.16996 4.26734 4.73245 3.97484 5.02495L2.36985 6.62993C3.50984 9.32991 5.66982 11.4899 8.36979 12.6299L9.95978 11.0399C10.2598 10.7399 10.8223 10.5074 11.2348 10.5074H14.2497C14.4473 10.5094 14.6362 10.5893 14.7752 10.7297C14.9143 10.8701 14.9922 11.0598 14.9922 11.2574V13.7699L14.9997 13.7624Z" fill="#B9B9B9"/>
</svg>
