<svg width="17" height="16" viewBox="0 0 17 16" fill="none" xmlns="http://www.w3.org/2000/svg">
<path d="M0.819093 2.24849C0.819093 1.72804 1.02125 1.22891 1.38108 0.860894C1.74092 0.492881 2.22896 0.286133 2.73784 0.286133H12.1572C12.666 0.286133 13.1541 0.492881 13.5139 0.860894C13.8738 1.22891 14.0759 1.72804 14.0759 2.24849V3.14618C14.7382 3.19144 15.3589 3.49245 15.8124 3.98824C16.2658 4.48404 16.518 5.13755 16.518 5.81641V13.3091C16.518 14.0188 16.2423 14.6994 15.7516 15.2012C15.2609 15.7031 14.5954 15.985 13.9015 15.985H3.43836C2.74443 15.985 2.07892 15.7031 1.58823 15.2012C1.09755 14.6994 0.821884 14.0188 0.821884 13.3091V5.81641H0.819093V2.42689H0.826768C0.821597 2.36757 0.819036 2.30804 0.819093 2.24849ZM13.0293 2.24849C13.0293 1.75612 12.6386 1.35651 12.1572 1.35651H2.73784C2.50653 1.35651 2.28469 1.45049 2.12113 1.61777C1.95757 1.78504 1.86568 2.01192 1.86568 2.24849C1.86568 2.48506 1.95757 2.71194 2.12113 2.87922C2.28469 3.0465 2.50653 3.14047 2.73784 3.14047H13.0293V2.24849ZM11.8083 9.56273C11.6695 9.56273 11.5364 9.61912 11.4383 9.71949C11.3401 9.81985 11.285 9.95598 11.285 10.0979C11.285 10.2399 11.3401 10.376 11.4383 10.4764C11.5364 10.5767 11.6695 10.6331 11.8083 10.6331H13.5526C13.6914 10.6331 13.8245 10.5767 13.9226 10.4764C14.0208 10.376 14.0759 10.2399 14.0759 10.0979C14.0759 9.95598 14.0208 9.81985 13.9226 9.71949C13.8245 9.61912 13.6914 9.56273 13.5526 9.56273H11.8083Z" fill="white"/>
</svg>
